# xmcd CD database file
#
# Track frame offsets:
#	150
#	28963
#	60228
#	85143
#	110725
#	139445
#
# Disc length: 2292 seconds
#
# Revision: 0
# Processed by: cddbd v1.5.1PL0 Copyright (c) Steve Scherf et al.
# Submitted via: CDex 1.51
#
DISCID=5108f206
DTITLE=Joe Bonner - New Beginnings
DYEAR=1988
DGENRE=Jazz
TTITLE0=Soft Breezes
TTITLE1=The Revolution
TTITLE2=A Child is Born
TTITLE3=New Beginnings
TTITLE4=Primal Scream
TTITLE5=Ode to Trane
EXTD=YEAR: 1988
EXTT0=
EXTT1=
EXTT2=
EXTT3=
EXTT4=
EXTT5=
PLAYORDER=
